<svg width="812" height="812" viewBox="0 0 812 812" fill="none" xmlns="http://www.w3.org/2000/svg">
<path d="M811.657 405.828C811.657 629.961 629.961 811.657 405.828 811.657C181.696 811.657 0 629.961 0 405.828C0 181.696 181.696 0 405.828 0C629.961 0 811.657 181.696 811.657 405.828Z" fill="url(#paint0_linear_241_35)"/>
<path d="M507.329 537.024C501.147 537.024 495.336 535.417 489.895 532.202C484.702 528.987 481.117 524.289 479.138 518.107L401.986 301.486C399.266 293.573 399.266 287.391 401.986 282.939C404.953 278.488 411.012 276.263 420.161 276.263C433.02 276.263 441.428 282.198 445.384 294.067L506.958 477.305L568.903 294.067C572.859 282.198 581.391 276.263 594.497 276.263C602.41 276.263 607.974 278.612 611.188 283.31C614.403 287.761 614.65 293.82 611.93 301.486L534.777 518.107C532.799 524.289 529.09 528.987 523.65 532.202C518.457 535.417 513.016 537.024 507.329 537.024Z" fill="white"/>
<path d="M594.497 272.639C603.063 272.639 609.985 275.203 614.124 281.188C618.328 287.009 618.262 294.481 615.346 302.698L615.344 302.7L538.192 519.323C535.949 526.248 531.715 531.622 525.555 535.282L525.557 535.284C519.835 538.826 513.74 540.648 507.329 540.648C500.484 540.648 494.038 538.858 488.053 535.322L488.02 535.303L487.989 535.284C482.047 531.605 477.956 526.217 475.725 519.323L398.573 302.7L398.559 302.663C395.698 294.34 395.343 286.859 398.894 281.049L398.931 280.988L398.971 280.929C402.978 274.92 410.66 272.639 420.16 272.639C427.149 272.639 433.247 274.258 438.2 277.754C443.159 281.254 446.651 286.41 448.82 292.913L506.968 465.959L565.469 292.906C567.643 286.392 571.175 281.235 576.201 277.739C581.215 274.251 587.398 272.639 594.497 272.639ZM594.497 279.886C588.49 279.886 583.855 281.243 580.338 283.689C576.837 286.125 574.124 289.864 572.341 295.213L572.336 295.227L506.949 488.651L441.951 295.222L441.946 295.213C440.158 289.85 437.468 286.107 434.022 283.675C430.567 281.236 426.03 279.886 420.16 279.886C411.413 279.886 406.98 282.032 405.034 284.899C403.185 287.99 402.854 292.845 405.4 300.271L482.552 516.891L482.571 516.947L482.59 517.002C484.317 522.398 487.369 526.362 491.754 529.092C496.645 531.978 501.816 533.401 507.329 533.402C512.292 533.402 517.079 532.009 521.742 529.122L521.775 529.101L521.806 529.082C526.459 526.333 529.612 522.363 531.327 517.002L531.344 516.947L531.365 516.891L608.515 300.273C611.039 293.158 610.476 288.513 608.25 285.432L608.198 285.357C605.902 282.001 601.721 279.886 594.497 279.886Z" fill="white"/>
<path d="M294.555 536.273C276.243 536.273 259.169 533.303 243.332 527.363C227.496 521.185 213.886 510.968 202.503 496.712C198.296 491.01 196.811 485.782 198.049 481.03C199.533 476.04 203.245 472.001 209.184 468.912C214.875 465.586 220.072 464.635 224.774 466.061C229.475 467.249 234.177 470.338 238.878 475.328C245.559 482.218 253.478 487.564 262.634 491.366C272.037 495.168 283.172 497.068 296.04 497.068C313.361 497.068 325.486 494.098 332.415 488.158C339.591 481.981 343.179 473.664 343.179 463.21C343.179 456.557 341.571 450.854 338.354 446.102C335.384 441.35 328.951 436.955 319.053 432.915C309.402 428.638 294.431 424.362 274.14 420.085C250.137 414.62 232.321 405.947 220.691 394.067C209.308 382.187 203.616 367.099 203.616 348.803C203.616 334.309 207.204 321.598 214.381 310.668C221.804 299.5 232.073 290.828 245.188 284.65C258.551 278.472 274.14 275.384 291.957 275.384C310.516 275.384 326.724 278.472 340.581 284.65C354.438 290.828 366.068 298.788 375.472 308.529C380.173 313.519 382.029 318.509 381.039 323.498C380.05 328.488 376.833 333.003 371.389 337.042C365.945 341.319 360.748 342.982 355.799 342.032C350.85 341.081 345.901 338.349 340.952 333.834C334.766 328.369 327.713 323.855 319.795 320.291C311.877 316.727 302.473 314.945 291.585 314.945C278.718 314.945 268.201 317.677 260.035 323.142C252.117 328.369 248.158 336.329 248.158 347.021C248.158 351.773 249.271 356.407 251.498 360.921C253.973 365.198 259.169 369.356 267.088 373.395C275.254 377.435 287.75 381.355 304.577 385.157C334.271 391.572 355.676 401.195 368.79 414.026C381.905 426.856 388.463 443.013 388.463 462.497C388.463 486.257 379.802 504.553 362.48 517.384C345.406 529.977 322.764 536.273 294.555 536.273Z" fill="white"/>
<path d="M244.534 347.02C244.534 335.3 248.956 326.122 258.02 320.13L258.862 319.58C267.647 313.985 278.636 311.321 291.585 311.321C302.859 311.321 312.794 313.167 321.282 316.987C329 320.461 335.954 324.816 342.127 330.059L343.351 331.118L343.372 331.137L343.393 331.158C348.007 335.366 352.371 337.684 356.481 338.473C360.056 339.16 364.208 338.074 369.149 334.192L369.189 334.161L369.23 334.133C374.196 330.448 376.721 326.641 377.484 322.793C378.171 319.328 377.037 315.475 372.834 311.014V311.012C363.796 301.657 352.573 293.964 339.105 287.96C325.804 282.03 310.118 279.007 291.957 279.007C274.568 279.007 259.521 282.017 246.73 287.926C234.171 293.843 224.434 302.09 217.407 312.654L217.41 312.656C210.663 322.932 207.24 334.937 207.24 348.804C207.24 366.276 212.643 380.429 223.302 391.556C234.257 402.733 251.302 411.161 274.885 416.538H274.887C295.17 420.814 310.41 425.14 320.421 429.56C330.413 433.638 337.73 438.359 341.355 444.071L342.023 445.104C345.252 450.322 346.802 456.405 346.802 463.209C346.802 474.595 342.843 483.962 334.778 490.904L334.774 490.909C326.812 497.735 313.548 500.692 296.038 500.692C282.826 500.692 271.209 498.742 261.276 494.726L261.245 494.712C251.649 490.727 243.313 485.106 236.277 477.85L236.258 477.831L236.242 477.812C231.826 473.126 227.695 470.537 223.885 469.574L223.803 469.553L223.722 469.529C220.284 468.486 216.143 469.043 211.012 472.042L210.934 472.086L210.856 472.127C205.555 474.884 202.683 478.229 201.54 482.004C200.712 485.275 201.583 489.348 205.395 494.528C216.397 508.282 229.477 518.067 244.647 523.985C260.033 529.75 276.658 532.65 294.555 532.65C322.24 532.65 344.05 526.472 360.324 514.471L361.827 513.325C377.124 501.323 384.839 484.534 384.839 462.497C384.839 443.921 378.628 428.719 366.257 416.616C353.854 404.482 333.23 395.055 303.811 388.699L303.778 388.692V388.69C286.874 384.871 274.04 380.876 265.482 376.642L265.461 376.633L265.442 376.624C257.332 372.487 251.369 367.932 248.362 362.736L248.301 362.632L248.249 362.524C245.791 357.541 244.534 352.361 244.534 347.02ZM251.781 347.02C251.781 351.138 252.732 355.182 254.685 359.186C256.651 362.523 261.07 366.257 268.735 370.167C276.51 374.005 288.656 377.845 305.375 381.622C335.328 388.097 357.503 397.914 371.324 411.436C385.183 424.994 392.086 442.106 392.086 462.497C392.086 487.27 382.985 506.705 364.637 520.296L364.632 520.3C346.758 533.483 323.285 539.897 294.555 539.897C275.845 539.897 258.335 536.86 242.059 530.755L242.038 530.748L242.017 530.739C225.542 524.312 211.423 513.689 199.672 498.972L199.627 498.918L199.587 498.864C195.03 492.686 192.923 486.333 194.541 480.117L194.558 480.058L194.577 479.996C196.403 473.859 200.902 469.169 207.377 465.769C213.621 462.125 219.867 460.788 225.824 462.594H225.822C231.342 464.032 236.55 467.584 241.479 472.806L242.679 474.011C248.748 479.958 255.853 484.627 264.024 488.019H264.022C272.888 491.598 283.531 493.445 296.038 493.445C313.171 493.445 324.16 490.462 330.056 485.408C336.34 479.996 339.555 472.73 339.555 463.209C339.555 457.162 338.103 452.194 335.354 448.133L335.316 448.079L335.281 448.022C332.942 444.28 327.421 440.243 317.682 436.269L317.633 436.25L317.583 436.227C308.291 432.109 293.623 427.894 273.392 423.63L273.363 423.625L273.335 423.618C248.961 418.068 230.399 409.165 218.101 396.602L218.087 396.588L218.075 396.574C205.971 383.941 199.993 367.919 199.993 348.804C199.993 333.683 203.746 320.263 211.352 308.679L211.363 308.662C219.182 296.9 229.982 287.809 243.644 281.373L243.668 281.361C257.596 274.922 273.724 271.76 291.957 271.76C310.913 271.76 327.643 274.915 342.056 281.34C355.397 287.288 366.804 294.878 376.222 304.138L378.078 306.013L378.109 306.044C383.309 311.563 385.886 317.689 384.594 324.204C383.383 330.308 379.502 335.507 373.624 339.889L373.627 339.891C367.68 344.563 361.439 346.805 355.116 345.591C349.343 344.482 343.825 341.347 338.553 336.548C332.653 331.337 325.911 327.017 318.308 323.595C310.959 320.288 302.086 318.568 291.585 318.568C279.216 318.568 269.46 321.193 262.049 326.152L262.031 326.166C255.271 330.629 251.781 337.365 251.781 347.02Z" fill="white"/>
<defs>
<linearGradient id="paint0_linear_241_35" x1="405.828" y1="0" x2="405.828" y2="811.657" gradientUnits="userSpaceOnUse">
<stop stop-color="#4D2DB7"/>
<stop offset="1" stop-color="#0A1D56"/>
</linearGradient>
</defs>
</svg>
